<svg width="24" height="24" viewBox="0 0 24 24" fill="none" xmlns="http://www.w3.org/2000/svg">
<path d="M18.0005 4.25049C20.6237 4.2507 22.7505 6.37727 22.7505 9.00049V15.0005C22.7503 17.6235 20.6235 19.7503 18.0005 19.7505H6.00049C3.37727 19.7505 1.2507 17.6237 1.25049 15.0005V9.00049C1.25049 6.37714 3.37714 4.25049 6.00049 4.25049H18.0005ZM2.75049 15.0005C2.7507 16.7952 4.20569 18.2505 6.00049 18.2505H18.0005C19.7951 18.2503 21.2503 16.7951 21.2505 15.0005V9.75049H2.75049V15.0005ZM18.0005 14.2505C18.4145 14.2507 18.7505 14.5864 18.7505 15.0005C18.7503 15.4144 18.4144 15.7503 18.0005 15.7505H14.0005C13.5864 15.7505 13.2507 15.4145 13.2505 15.0005C13.2505 14.5863 13.5863 14.2505 14.0005 14.2505H18.0005ZM6.00049 5.75049C4.46377 5.75049 3.17704 6.81724 2.83838 8.25049H21.1626C20.824 6.81736 19.537 5.75067 18.0005 5.75049H6.00049Z" fill="#3B5162"/>
</svg>
